<!--?xml version="1.0" encoding="utf-8"?-->
<!-- Generator: Adobe Illustrator 21.1.0, SVG Export Plug-In . SVG Version: 6.00 Build 0)  -->
<svg version="1.1" id="_x31_0" xmlns="http://www.w3.org/2000/svg" xmlns:xlink="http://www.w3.org/1999/xlink" x="0px" y="0px" viewBox="0 0 512 512" style="width: 256px; height: 256px; opacity: 1;" xml:space="preserve">
<style type="text/css">
	.st0{fill:#374149;}
</style>
<g>
	<path class="st0" d="M201.949,400.475c-1.481-3.035-2.821-6.07-3.879-9.106c-1.199-3.457-2.187-6.844-2.894-10.301
		c-0.774-3.882-1.266-7.695-1.34-11.574v-1.906v-1.551v-54.191c12.207-0.141,24.062-1.058,35.496-2.539
		c6.282-3.882,11.641-6.777,19.687-11.007c2.836-1.422,6.035-3.114,9.734-5.055l1.008-0.445c-0.094,0.027-0.195,0.042-0.289,0.066
		c0.098-0.051,0.172-0.09,0.274-0.145c-19.852,5.066-41.828,8.054-64.766,8.488c-0.383,0.008-0.758,0.043-1.145,0.047v-81.496
		h80.109l1.395,0.004c-0.344,20.082-2.707,39.309-6.59,57.152c-0.926,4.176-1.851,8.352-2.976,12.418l0.062-0.035
		c-0.008,0.035-0.016,0.07-0.024,0.105c4.801-2.609,9.032-4.867,12.774-6.984c4.442-19.402,6.985-40.504,7.336-62.66h55.484h0.262
		c0,0.699-0.05,1.422-0.086,2.145c-0.043,0.418-0.027,0.855-0.102,1.246c0.016-0.007,0.035-0.015,0.051-0.027
		c-0.004,0.031-0.004,0.062-0.004,0.094c1.832-1.27,3.738-2.398,5.714-3.386c0.07,0,0.07-0.07,0.141-0.07
		c2.614-1.27,5.363-2.328,8.114-3.035c3.457-1.054,7.058-1.621,10.726-1.762c1.695-0.141,3.316-0.141,5.011,0
		c1.555,0.129,3.11,0.278,4.664,0.516c0.383,0.07,0.692,0.101,1.114,0.187v-0.012c0.027,0.004,0.051,0.008,0.078,0.016v-1.199
		c0-104.082-84.39-188.546-188.546-188.546C84.394,25.925,0,110.39,0,214.472C0,318.62,84.394,403.014,188.542,403.014
		c1.27,0,2.508-0.122,3.766-0.149c3.43-0.066,6.926-0.183,10.637-0.371c-0.008-0.015-0.016-0.031-0.024-0.042
		c0.032-0.004,0.059-0.004,0.09-0.004C202.589,401.815,202.304,401.108,201.949,400.475z M275.335,209.179h-81.5v-81.43
		c25.547,0.418,49.89,4.019,71.484,10.019c5.942,21.394,9.508,45.43,9.985,70.714C275.308,208.717,275.331,208.945,275.335,209.179z
		 M294.3,103.87c15.164,14.547,27.445,32.062,35.538,51.606c-15.011-10.832-34.019-19.844-55.839-26.461
		c-6.633-21.871-15.668-40.996-26.535-56.027C264.991,80.339,280.784,90.933,294.3,103.87z M261.597,125.691
		c-20.73-5.145-43.645-8.176-67.762-8.528V61.347c11.789,0.352,23.289,2.118,34.222,5.078
		c11.746,11.805,21.914,28.675,29.832,48.953C259.182,118.726,260.433,122.148,261.597,125.691z M285.921,209.179
		c-0.351-24.062-3.386-46.996-8.535-67.742c24.836,8.254,45.367,19.828,59.199,33.519c2.902,10.715,4.637,21.977,5.039,33.516
		c0.008,0.234,0.031,0.469,0.039,0.707H285.921z M183.249,367.589c-11.852-0.352-23.286-2.114-34.293-5.082
		c-13.618-13.758-25.262-34.359-33.516-59.27c20.746,5.223,43.68,8.258,67.813,8.61v54.496L183.249,367.589z M47.137,273.53
		c15.031,10.797,34.082,19.828,55.957,26.39c5.43,18.102,12.625,34.113,21.038,47.672c1.719,2.808,3.422,5.656,5.238,8.23
		C92.308,340.288,62.644,310.608,47.137,273.53z M183.253,117.163c-20.836,0.305-40.676,2.707-59.086,6.649
		c-2.906,0.61-5.847,1.152-8.71,1.844c8.328-24.891,19.89-45.477,33.57-59.23c10.941-2.961,22.441-4.726,34.226-5.078V117.163z
		 M99.734,287.557c-24.825-8.187-45.336-19.754-59.16-33.359c-3.035-11.012-4.797-22.582-5.149-34.438h55.742
		c0.304,20.82,2.706,40.648,6.687,59.046C98.476,281.729,99.027,284.686,99.734,287.557z M35.425,209.175
		c0.352-11.856,2.114-23.286,5.078-34.293c13.828-13.618,34.363-25.192,59.202-33.446c-5.152,20.746-8.187,43.68-8.538,67.742
		H36.672L35.425,209.175z M101.753,209.175c0.422-25.543,4.019-49.817,10.019-71.406c21.66-6,45.938-9.602,71.481-10.019v81.43
		h-80.598L101.753,209.175z M103.093,129.015c-17.184,5.211-32.539,11.945-45.66,19.809c-3.543,2.109-7.008,4.262-10.242,6.538
		c15.539-37.133,45.289-66.796,82.363-82.374C118.761,88.019,109.726,107.144,103.093,129.015z M183.249,301.261
		c-25.543-0.422-49.817-4.024-71.477-10.02c-6-21.664-9.598-45.937-10.019-71.48h81.078h0.422v79.637L183.249,301.261z" style="fill: rgb(255, 255, 255);"></path>
	<path class="st0" d="M503.814,244.514c-9.586-19.988-26.402-35.042-47.355-42.394c-0.832-0.293-1.676-0.316-2.511-0.351
		c-0.126-0.008-0.242-0.062-0.367-0.062c-0.012,0-0.024,0.008-0.039,0.008c-0.664,0-1.286,0.148-1.922,0.301
		c-0.328,0.078-0.652,0.136-0.965,0.254c-0.59,0.214-1.121,0.488-1.652,0.828c-0.293,0.184-0.554,0.39-0.824,0.614
		c-0.489,0.398-0.946,0.793-1.344,1.301c-0.207,0.262-0.34,0.578-0.516,0.863c-0.316,0.519-0.718,0.965-0.926,1.558
		c-1.59,4.531,0.793,9.484,5.317,11.07c16.566,5.816,29.867,17.722,37.445,33.523c7.574,15.801,8.531,33.621,2.691,50.179
		c-1.601,4.524,0.774,9.481,5.298,11.078c0.843,0.297,1.695,0.324,2.542,0.355c0.118,0.004,0.23,0.059,0.348,0.059
		c0.008,0,0.015-0.004,0.027-0.004c1.301-0.004,2.574-0.219,3.726-0.77c2-0.961,3.637-2.684,4.434-4.942
		C514.608,287.045,513.401,264.507,503.814,244.514z" style="fill: rgb(255, 255, 255);"></path>
	<path class="st0" d="M442.069,243.042c-0.848-0.301-1.703-0.329-2.554-0.36c-0.114-0.004-0.219-0.054-0.332-0.054
		c-0.012,0-0.02,0.004-0.031,0.004c-0.672,0.004-1.29,0.148-1.926,0.301c-0.328,0.078-0.652,0.137-0.965,0.254
		c-0.59,0.215-1.121,0.489-1.652,0.824c-0.293,0.188-0.555,0.395-0.824,0.614c-0.489,0.402-0.946,0.797-1.344,1.305
		c-0.207,0.258-0.336,0.57-0.512,0.855c-0.316,0.52-0.722,0.969-0.93,1.566c-1.598,4.524,0.782,9.485,5.305,11.074
		c5.621,1.977,10.129,6.015,12.695,11.371c2.57,5.355,2.894,11.398,0.918,17.019c-1.594,4.523,0.785,9.481,5.308,11.07
		c0.848,0.301,1.703,0.328,2.555,0.359c0.113,0.004,0.218,0.055,0.332,0.055c0.007,0,0.015-0.004,0.027-0.004
		c1.301-0.004,2.574-0.219,3.722-0.77c2.004-0.958,3.641-2.684,4.438-4.95c3.519-9.996,2.938-20.75-1.641-30.293
		C460.088,253.749,452.061,246.557,442.069,243.042z" style="fill: rgb(255, 255, 255);"></path>
	<path class="st0" d="M415.967,294.557c-2.465-5.012-5.008-9.879-7.621-14.465c-2.61-4.66-5.219-9.035-7.832-13.054
		c-5.219-8.114-10.442-15.028-15.168-20.114c-2.754-2.961-6.211-5.148-10.094-6.347c-0.985-0.286-1.973-0.567-2.961-0.707
		c-4.446-0.703-8.965-0.141-13.055,1.625c-0.351,0.141-0.703,0.351-1.058,0.492c-4.375,2.191-7.902,5.578-10.16,9.95
		c-1.766,3.316-5.363,9.386-11.504,16.582c-1.762,2.047-3.742,4.234-5.926,6.422c-0.778,0.778-1.481,1.555-2.258,2.258
		c-14.75,14.535-26.531,20.886-50.946,34.015l-0.285,0.207c-3.176,1.691-6.07,3.246-8.61,4.586
		c-3.035,1.555-5.645,2.965-7.973,4.164c-2.539,1.344-4.797,2.469-6.843,3.602c-3.458,1.836-6.422,3.454-9.458,5.363
		c-0.847,0.493-1.695,0.985-2.538,1.551c-0.848,0.496-1.696,1.058-2.614,1.621c-2.82,1.836-5.363,3.813-7.547,5.93
		c-6.702,6.278-10.867,13.832-12.422,22.367c-0.281,1.41-0.422,2.75-0.422,4.164c-0.211,1.973-0.211,4.02,0,6.066
		c0.281,3.672,1.058,7.41,2.328,11.222c0.848,2.469,1.836,4.938,3.106,7.477c1.621,3.321,3.457,6.282,5.504,8.961
		c4.09,5.508,8.961,9.668,14.538,12.562c10.301,5.294,21.942,5.719,34.5,1.274c1.34-0.496,2.68-0.992,3.954-1.484l5.859,7.195
		c3.242,4.023,7.969,6.492,12.91,7.054l24.207,48.762c1.859,3.785,4.715,6.77,8.086,8.871l0.011,0.004
		c4.801,2.992,10.684,4.137,16.527,2.77l7.828-1.836c0.852-0.211,1.626-0.496,2.402-0.774c0.426-0.145,0.844-0.282,1.199-0.43
		c0.352-0.137,0.778-0.278,1.129-0.492c2.188-1.055,4.165-2.469,5.786-4.094c1.625-1.621,3.035-3.594,4.094-5.714
		c2.965-5.851,3.176-12.629,0.566-18.625l-21.734-49.961l3.813-1.902l-1.555-5.153l-4.726-14.886
		c10.371-3.812,19.262-5.859,30.762-7.34c13.973-1.766,24.066-0.706,28.859,0.066c4.875,0.852,9.742,0.145,14.114-2.046
		c0.328-0.16,0.562-0.442,0.879-0.618c1.476-0.824,2.843-1.789,4.094-2.89c0.542-0.477,1.054-0.969,1.55-1.496
		c1.176-1.246,2.211-2.625,3.094-4.121c0.176-0.298,0.454-0.508,0.618-0.821c2.328-4.449,3.176-9.668,2.258-14.675
		C432.905,333.932,425.85,314.526,415.967,294.557z M343.487,467.627c-0.27-0.133-0.512-0.317-0.742-0.512
		c-0.234-0.191-0.422-0.422-0.606-0.668c-0.137-0.183-0.301-0.347-0.402-0.562l-25.285-51.129l-0.398-0.808l5.926-2.962l4.801-2.332
		l5.992-2.961l23.856,55.043c0.492,1.054,0.422,2.254-0.074,3.312c-0.352,0.774-0.985,1.34-1.762,1.695
		c-0.286,0.141-0.566,0.282-0.848,0.352l-7.832,1.836c-0.426,0.102-0.855,0.121-1.274,0.082
		C344.358,467.967,343.909,467.834,343.487,467.627z M349.299,283.257c2.098-2.371,3.973-4.618,5.653-6.793
		c0.156-0.203,0.32-0.41,0.473-0.61c4.515-5.922,7.71-11.066,9.527-14.531c1.203,1.34,2.402,2.824,3.668,4.375
		c0.281,0.422,0.637,0.914,0.988,1.34c7.41,9.738,15.738,23.57,23.359,38.882c7.973,16.011,14.039,31.679,17.215,43.675
		c0.367,1.462,0.652,2.79,0.941,4.13c0.09,0.472,0.234,0.968,0.301,1.441c-6.43-0.984-18.339-2.109-34.125-0.137
		c-22.226,2.825-35.492,7.973-57.011,17.57c-3.11,1.481-6.355,2.961-9.883,4.516c-3.598,1.625-6.699,3.031-9.453,4.305
		c-3.316-2.473-6.492-5.504-9.386-9.031c-2.961-3.602-5.645-7.762-7.902-12.348c-3.457-6.914-5.504-14.043-6.137-20.82l-0.074-0.066
		c-0.207-1.977-0.281-3.883-0.281-5.79c2.679-1.41,5.714-3.031,9.102-4.937c3.882-2.118,7.48-4.024,10.8-5.856
		c19.965-10.867,31.962-18.347,47.348-33.941c1.106-1.129,1.961-2.176,2.973-3.278C348.045,284.647,348.686,283.948,349.299,283.257
		z M295.674,398.276c0.914-0.418,1.966-0.84,2.95-1.332c0.988-0.492,2.043-0.989,3.176-1.551c3.808-1.766,8.394-3.812,13.969-6.351
		l0.285-0.141c2.89-1.34,5.645-2.539,8.254-3.672c2.118-0.988,4.164-1.902,6.07-2.75l3.102,9.809l-11.359,5.574l-7.547,3.738
		l-10.094,4.942l-0.422,0.351c-0.07,0-0.145,0.07-0.211,0.07c-0.246,0.141-0.507,0.176-0.754,0.125
		c-0.016-0.003-0.027-0.015-0.043-0.023c-0.23-0.058-0.449-0.183-0.617-0.382l-5.516-6.84L295.674,398.276z M243.585,364.135
		c0.141,1.691,0.066,3.313-0.214,4.797c-0.454,2.375-1.422,4.223-2.695,5.344c-0.23,0.199-0.438,0.446-0.692,0.594
		c-0.37,0.219-0.785,0.324-1.202,0.41c-0.157,0.039-0.301,0.113-0.462,0.137c-0.293,0.031-0.582-0.024-0.87-0.066
		c-0.477-0.07-0.942-0.23-1.402-0.485c-0.367-0.207-0.723-0.473-1.066-0.785c-0.348-0.313-0.676-0.688-1-1.102
		c-0.184-0.242-0.383-0.457-0.555-0.73c-1.133-1.766-1.976-4.234-2.262-7.058c-0.141-1.196-0.141-2.398,0-3.528
		c0.141-1.129,0.355-2.254,0.707-3.175c0.774-2.328,2.117-3.954,3.742-4.446c0.277-0.141,0.492-0.211,0.773-0.211
		c2.118-0.144,4.164,1.551,5.578,4.305c0.492,1.058,0.914,2.258,1.195,3.527c0.211,0.778,0.352,1.551,0.426,2.398V364.135z" style="fill: rgb(255, 255, 255);"></path>
</g>
</svg>
