<!--?xml version="1.0" encoding="utf-8"?-->
<!-- Generator: Adobe Illustrator 18.1.1, SVG Export Plug-In . SVG Version: 6.00 Build 0)  -->

<svg version="1.1" id="_x31_0" xmlns="http://www.w3.org/2000/svg" xmlns:xlink="http://www.w3.org/1999/xlink" x="0px" y="0px" viewBox="0 0 512 512" style="width: 256px; height: 256px; opacity: 1;" xml:space="preserve">
<style type="text/css">
	.st0{fill:#374149;}
</style>
<g>
	<path class="st0" d="M10.848,0v512h490.305V0H10.848z M84.289,468.61H41.223v-39.871h43.066V468.61z M84.289,391.539H41.223
		v-39.871h42.965h0.102V391.539z M84.289,314.469H41.223v-39.871h43.066V314.469z M84.289,237.398H41.223v-39.871h43.066V237.398z
		 M84.289,160.332H41.223v-39.871h43.066V160.332z M84.289,83.262H41.223V43.39h42.965h0.102V83.262z M399.028,468.191l-0.004,0.418
		H113.688l-0.711-0.004V279.863h286.051V468.191z M399.028,231.722l-0.004,0.414H113.688h-0.711V43.39h284.461l1.59,0.004V231.722z
		 M470.777,468.61h-43.066v-39.871h43.066V468.61z M470.777,391.539h-43.066v-39.871h42.961h0.106V391.539z M470.777,314.469
		h-43.066v-39.871h43.066V314.469z M470.777,237.398h-43.066v-39.871h43.066V237.398z M470.777,160.332h-43.066v-39.871h43.066
		V160.332z M470.777,83.262h-43.066V43.39h42.961h0.106V83.262z" style="fill: rgb(255, 255, 255);"></path>
</g>
</svg>
