<!--?xml version="1.0" encoding="utf-8"?-->
<!-- Generator: Adobe Illustrator 18.1.1, SVG Export Plug-In . SVG Version: 6.00 Build 0)  -->

<svg version="1.1" id="_x31_0" xmlns="http://www.w3.org/2000/svg" xmlns:xlink="http://www.w3.org/1999/xlink" x="0px" y="0px" viewBox="0 0 512 512" style="width: 256px; height: 256px; opacity: 1;" xml:space="preserve">
<style type="text/css">
	.st0{fill:#374149;}
</style>
<g>
	<path class="st0" d="M475.2,204.617h-44.358l-20.41-0.038l0.016,0.038h-0.09l24.922,49.836l11.205,22.492h-39.146v179.484
		c0,3.243-2.638,5.884-5.88,5.884H132.952c-3.243,0-5.88-2.641-5.88-5.884V276.945h-9.435l-36.166-72.328H59.21
		c-5.333,0-9.654,4.322-9.654,9.654v53.758c0,5.334,4.321,9.654,9.654,9.654h18.175v178.746c0,30.642,24.93,55.571,55.567,55.571
		h268.506c30.638,0,55.567-24.93,55.567-55.571V277.683H475.2c5.333,0,9.654-4.321,9.654-9.654v-53.758
		C484.853,208.938,480.532,204.617,475.2,204.617z" style="fill: rgb(255, 255, 255);"></path>
	<polygon class="st0" points="351.149,204.617 299.431,204.617 275.634,204.578 275.65,204.617 275.564,204.617 312.096,277.683 
		387.682,277.683 	" style="fill: rgb(255, 255, 255);"></polygon>
	<polygon class="st0" points="177.216,277.683 252.802,277.683 216.269,204.617 164.551,204.617 140.75,204.578 140.77,204.617 
		140.68,204.617 	" style="fill: rgb(255, 255, 255);"></polygon>
	<path class="st0" d="M424.52,78.524l26.282-8.744c5.38-1.789,8.286-7.598,6.498-12.974L440.71,6.946
		c-0.211-0.625-0.633-1.09-0.946-1.645c-0.25-0.45-0.449-0.926-0.758-1.325c-0.426-0.554-0.926-0.984-1.45-1.434
		c-0.371-0.32-0.738-0.621-1.153-0.886c-0.578-0.367-1.156-0.668-1.797-0.914c-0.442-0.172-0.898-0.274-1.367-0.379
		c-0.696-0.164-1.364-0.32-2.086-0.332c-0.062,0-0.118-0.031-0.18-0.031c-0.422,0-0.828,0.152-1.246,0.203
		c-0.668,0.082-1.332,0.023-1.996,0.246l-42.026,13.986l-18.866,6.239l0.031,0.027l-0.086,0.027L424.52,78.524z" style="fill: rgb(255, 255, 255);"></path>
	<polygon class="st0" points="296.618,121.085 346.395,104.52 368.281,97.277 368.253,97.25 368.336,97.218 310.604,39.424 
		260.901,55.962 238.937,63.232 238.964,63.26 238.882,63.287 	" style="fill: rgb(255, 255, 255);"></polygon>
	<polygon class="st0" points="168.633,163.67 218.192,147.178 240.296,139.861 240.269,139.834 240.355,139.802 182.62,82.009 
		132.928,98.546 110.956,105.817 110.984,105.844 110.898,105.875 	" style="fill: rgb(255, 255, 255);"></polygon>
	<path class="st0" d="M47.416,198.64c0.371,0.32,0.738,0.625,1.153,0.886c0.578,0.371,1.156,0.668,1.797,0.914
		c0.442,0.172,0.898,0.274,1.363,0.379c0.7,0.164,1.368,0.32,2.094,0.336c0.062,0,0.118,0.027,0.176,0.027
		c0.422,0,0.824-0.153,1.238-0.203c0.672-0.082,1.336-0.023,2.004-0.246l38.119-12.682l17.034-5.634l-0.027-0.027l0.086-0.027
		L54.717,124.57l-20.546,6.834c-5.376,1.789-8.286,7.598-6.498,12.978l16.593,49.859c0.207,0.621,0.629,1.082,0.938,1.637
		c0.25,0.45,0.453,0.926,0.762,1.332C46.396,197.761,46.892,198.194,47.416,198.64z" style="fill: rgb(255, 255, 255);"></path>
	<path class="st0" d="M246.716,405.097l63.49-36.658c3.867-2.231,3.867-7.814,0-10.045l-63.49-36.658
		c-3.864-2.231-8.701,0.558-8.701,5.024v73.312C238.015,404.538,242.852,407.328,246.716,405.097z" style="fill: rgb(255, 255, 255);"></path>
</g>
</svg>
