<svg version="1.0" xmlns="http://www.w3.org/2000/svg" width="602pt" height="454pt" viewBox="0 0 602 454" style="" preserveAspectRatio="xMidYMid meet">
<g fill="#000000FF" stroke="#000000FF">
<path d="M 299.500 20.030 C 256.610 23.676 218.833 49.346 199.475 88.000 C 197.409 92.125 194.418 99.252 192.829 103.837 L 189.938 112.175 194.958 121.709 C 202.039 135.161 209.721 145.447 223.051 159.326 L 234.601 171.352 241.428 161.493 C 253.591 143.925 266.398 128.464 281.381 113.261 L 289.500 105.022 282.532 115.761 C 267.994 138.165 259.091 159.559 258.240 174.138 C 257.420 188.177 257.700 188.816 267.183 194.549 C 274.538 198.995 275.853 199.455 280.424 199.181 C 304.239 197.751 347.155 167.543 379.907 129.157 C 389.654 117.734 402.000 101.421 402.000 99.967 C 402.000 98.861 388.871 86.719 380.212 79.817 C 375.970 76.436 367.775 70.548 362.000 66.733 C 356.225 62.918 351.702 59.730 351.948 59.648 C 352.755 59.381 372.329 71.470 380.000 76.974 C 384.125 79.933 391.391 85.620 396.146 89.611 L 404.792 96.869 409.559 88.684 C 412.181 84.183 414.483 80.198 414.674 79.829 C 415.383 78.458 405.545 65.245 398.146 57.633 C 387.635 46.818 376.623 38.812 363.552 32.484 C 350.118 25.979 345.941 24.573 331.723 21.768 L 320.663 19.586 311.686 29.043 C 295.549 46.045 280.575 65.994 273.613 79.765 C 267.813 91.238 266.980 102.000 271.892 102.000 C 278.310 102.000 301.260 85.794 325.977 63.808 C 332.603 57.915 333.142 57.602 330.500 61.184 C 325.871 67.461 296.733 96.512 284.961 106.588 C 279.164 111.549 270.164 118.752 264.961 122.595 C 243.056 138.773 232.374 143.228 228.557 137.777 C 219.083 124.252 257.193 67.604 303.418 26.500 C 307.748 22.650 310.662 19.447 309.895 19.383 C 309.128 19.318 304.450 19.610 299.500 20.030 "/></g>
<g fill="#000000FF" stroke="#000000FF">
<path d="M 446.601 2.158 C 438.637 3.248 438.344 4.000 445.883 4.000 C 453.840 4.000 457.298 5.789 459.376 10.982 C 461.440 16.140 461.418 17.046 459.000 26.500 C 456.045 38.056 446.692 56.317 433.968 75.378 L 422.701 92.255 420.919 89.892 C 419.939 88.593 418.957 87.748 418.738 88.015 C 418.519 88.282 417.085 92.100 415.551 96.500 C 414.018 100.900 411.370 106.300 409.666 108.500 C 384.585 140.900 336.610 189.936 299.851 220.745 C 298.418 221.946 297.245 221.645 290.880 218.439 C 272.522 209.194 254.294 196.987 238.206 183.162 C 232.002 177.831 231.938 177.724 233.706 175.627 C 235.483 173.520 235.480 173.517 233.406 175.264 C 231.350 176.996 231.155 176.865 222.749 168.146 C 203.299 147.969 190.468 126.327 184.988 104.454 C 181.855 91.947 182.455 74.706 186.377 64.551 C 191.023 52.519 199.376 43.605 211.769 37.453 C 214.371 36.162 215.911 35.082 215.190 35.053 C 214.470 35.024 210.195 36.767 205.690 38.926 C 173.011 54.589 164.473 87.953 183.022 127.500 C 185.917 133.672 186.333 135.623 186.539 144.000 C 186.829 155.745 189.214 169.961 192.665 180.500 C 195.092 187.912 201.758 202.601 204.998 207.674 C 206.286 209.691 205.764 210.782 197.791 222.733 C 152.607 290.466 163.441 316.759 223.000 283.912 C 240.832 274.077 265.034 257.133 286.714 239.303 L 297.997 230.024 303.748 232.578 L 309.500 235.132 305.000 238.999 C 302.525 241.125 294.789 246.608 287.808 251.182 C 280.828 255.757 275.091 259.793 275.058 260.150 C 274.880 262.134 295.173 264.984 309.500 264.988 C 329.621 264.994 345.937 261.299 364.086 252.625 C 371.411 249.124 372.055 249.000 382.894 249.000 C 396.963 249.000 406.148 247.594 416.997 243.780 C 436.774 236.827 450.433 222.765 454.625 205.042 C 456.249 198.177 455.726 197.420 453.624 203.590 C 445.568 227.232 417.874 242.021 381.715 241.989 C 369.397 241.979 350.035 239.520 338.500 236.501 C 330.263 234.345 306.829 226.229 305.762 225.162 C 305.270 224.670 311.100 218.643 319.197 211.271 C 337.718 194.409 378.842 152.562 390.956 138.251 C 396.157 132.106 400.593 127.260 400.814 127.481 C 401.841 128.508 385.075 154.082 373.594 169.000 C 362.902 182.893 354.168 192.837 339.179 208.183 L 326.791 220.867 331.123 222.033 C 353.227 227.985 387.993 228.730 400.573 223.522 C 402.443 222.748 405.541 219.594 408.485 215.469 C 422.188 196.265 429.469 176.972 432.010 153.128 C 432.897 144.800 432.884 144.719 429.451 137.902 C 427.552 134.133 423.047 126.694 419.438 121.371 C 413.548 112.684 413.034 111.538 414.407 110.164 C 415.781 108.790 416.157 108.831 418.078 110.567 C 419.256 111.630 422.475 115.333 425.231 118.795 C 427.988 122.257 430.454 124.879 430.711 124.622 C 431.416 123.917 428.356 109.962 426.070 103.458 L 424.057 97.732 430.054 89.426 C 452.703 58.051 466.168 30.762 466.338 15.890 C 466.477 3.773 461.268 0.149 446.601 2.158 M 237.000 192.646 C 250.153 203.180 262.126 211.140 278.277 220.088 C 290.899 227.081 291.897 227.837 290.180 229.110 C 289.149 229.875 281.825 235.406 273.903 241.403 C 251.493 258.368 233.997 269.477 218.766 276.413 C 207.099 281.726 200.819 283.272 192.759 282.817 C 186.602 282.469 185.472 282.088 183.379 279.655 C 181.381 277.331 181.000 275.806 181.000 270.126 C 181.000 261.943 182.812 255.520 188.639 243.044 C 192.851 234.026 194.214 231.630 203.281 217.311 L 207.200 211.121 209.413 213.694 L 211.626 216.267 213.448 211.383 C 215.840 204.971 225.983 184.995 226.836 185.018 C 227.201 185.028 231.775 188.461 237.000 192.646 "/></g>
<g fill="#000000FF" stroke="#000000FF">
<path d="M 581.735 330.044 C 579.115 331.108 573.152 332.728 568.485 333.645 C 561.509 335.016 560.000 335.640 560.000 337.156 C 560.000 338.603 560.767 339.000 563.566 339.000 C 568.619 339.000 570.759 340.471 571.951 344.762 C 573.132 349.014 573.396 377.343 572.250 376.833 C 571.838 376.650 568.359 374.925 564.521 373.000 C 557.754 369.606 557.192 369.500 546.021 369.500 C 536.406 369.500 533.493 369.882 528.413 371.811 C 520.004 375.004 512.860 381.509 508.876 389.600 C 506.057 395.326 505.611 397.369 505.210 406.374 C 504.955 412.123 505.250 418.938 505.882 421.887 C 508.542 434.287 515.852 443.696 526.825 448.840 C 531.982 451.257 533.596 451.500 544.500 451.500 C 555.560 451.500 556.970 451.280 562.497 448.692 C 565.795 447.148 569.447 444.989 570.612 443.895 L 572.730 441.905 573.415 447.072 L 574.101 452.240 578.040 451.610 C 580.207 451.263 586.034 450.692 590.990 450.340 C 598.860 449.781 600.000 449.466 600.000 447.850 C 600.000 446.423 599.244 446.000 596.691 446.000 C 594.871 446.000 592.509 445.361 591.441 444.581 C 589.564 443.209 589.491 441.254 589.219 385.581 C 589.001 341.089 588.660 328.012 587.719 328.055 C 587.048 328.085 584.356 328.980 581.735 330.044 M 561.722 377.856 C 564.044 379.042 567.532 381.406 569.472 383.110 L 573.000 386.207 573.000 410.055 L 573.000 433.904 569.377 437.422 C 561.619 444.956 549.432 447.964 540.493 444.551 C 534.731 442.350 527.704 434.556 525.320 427.720 C 523.904 423.659 523.503 419.502 523.512 409.000 C 523.523 397.078 523.794 394.903 525.824 390.393 C 528.758 383.876 534.499 378.269 540.107 376.443 C 546.180 374.466 556.390 375.134 561.722 377.856 "/></g>
<g fill="#000000FF" stroke="#000000FF">
<path d="M 1.000 335.489 C 1.000 337.793 1.366 338.000 5.435 338.000 C 12.258 338.000 14.722 339.339 15.934 343.702 C 17.368 348.866 17.368 434.134 15.934 439.298 C 14.722 443.661 12.258 445.000 5.435 445.000 C 1.371 445.000 1.000 445.209 1.000 447.500 L 1.000 450.000 46.821 450.000 L 92.643 450.000 95.321 438.626 C 96.795 432.370 98.000 426.718 98.000 426.065 C 98.000 425.312 96.680 424.992 94.383 425.190 C 90.917 425.487 90.668 425.770 88.451 431.909 C 87.178 435.434 84.972 439.484 83.548 440.909 L 80.959 443.500 59.620 443.820 C 40.896 444.100 38.081 443.938 36.641 442.498 C 35.209 441.066 35.000 437.736 35.000 416.337 L 35.000 391.817 49.966 392.158 C 67.918 392.568 68.196 392.721 68.818 402.488 L 69.233 409.000 73.116 409.000 L 77.000 409.000 77.000 389.500 L 77.000 370.000 73.139 370.000 L 69.278 370.000 68.722 376.131 C 67.890 385.299 67.614 385.442 49.967 385.822 L 35.000 386.144 35.000 363.607 C 35.000 342.349 35.110 341.012 36.934 340.035 C 39.405 338.713 71.980 338.662 75.434 339.975 C 78.583 341.172 81.542 345.805 83.592 352.750 C 85.119 357.922 85.200 358.000 89.046 358.000 C 93.527 358.000 93.471 359.450 89.623 342.866 L 87.450 333.500 44.225 333.239 L 1.000 332.979 1.000 335.489 "/></g>
<g fill="#000000FF" stroke="#000000FF">
<path d="M 320.699 371.442 C 302.514 377.860 293.099 394.797 295.779 416.272 C 297.717 431.803 303.948 441.572 315.435 447.086 C 323.690 451.049 330.683 452.276 342.515 451.838 C 351.864 451.492 353.292 451.160 360.263 447.715 C 365.486 445.133 369.301 442.346 372.533 438.752 L 377.224 433.535 374.504 432.423 C 371.984 431.393 371.435 431.661 367.044 436.052 C 361.214 441.881 357.707 443.747 349.259 445.515 C 342.291 446.973 336.285 446.399 329.700 443.648 C 325.722 441.986 319.690 436.235 317.517 432.034 C 315.531 428.193 313.033 417.496 313.015 412.750 L 313.000 409.000 345.000 409.000 L 377.000 409.000 377.000 405.710 C 377.000 396.044 370.745 382.540 363.611 376.808 C 353.689 368.834 334.787 366.471 320.699 371.442 M 344.764 375.523 C 353.049 377.983 358.542 386.718 359.215 398.500 L 359.500 403.500 336.134 403.769 L 312.767 404.037 313.477 399.308 C 315.302 387.136 321.569 378.166 330.107 375.504 C 335.911 373.694 338.618 373.697 344.764 375.523 "/></g>
<g fill="#000000FF" stroke="#000000FF">
<path d="M 410.000 371.555 C 406.975 372.837 401.463 374.403 397.750 375.034 C 392.174 375.981 391.000 376.513 391.000 378.090 C 391.000 379.447 391.705 380.000 393.435 380.000 C 396.538 380.000 401.235 381.772 402.214 383.313 C 402.630 383.966 402.969 397.325 402.969 413.000 C 402.969 428.675 402.630 442.034 402.214 442.687 C 401.235 444.228 396.538 446.000 393.435 446.000 C 391.667 446.000 391.000 446.548 391.000 448.000 C 391.000 449.932 391.667 450.000 410.500 450.000 C 428.890 450.000 430.000 449.893 430.000 448.128 C 430.000 446.730 429.028 446.100 426.167 445.643 C 420.279 444.701 420.000 443.341 420.000 415.533 L 420.000 391.160 425.725 386.057 C 434.057 378.631 439.897 376.000 448.048 376.000 C 453.326 376.000 455.408 376.474 458.102 378.287 C 464.332 382.481 464.500 383.440 464.500 414.699 C 464.500 434.312 464.156 443.243 463.371 444.028 C 462.750 444.650 460.388 445.407 458.121 445.711 C 454.961 446.134 454.000 446.699 454.000 448.132 C 454.000 449.891 455.113 450.000 473.000 450.000 C 490.601 450.000 492.000 449.868 492.000 448.207 C 492.000 446.936 490.730 446.075 487.626 445.245 C 484.446 444.394 483.086 443.451 482.640 441.788 C 482.303 440.529 482.021 428.337 482.014 414.693 C 482.006 399.960 481.552 388.105 480.896 385.501 C 479.274 379.062 474.087 373.551 467.226 370.980 C 462.509 369.212 459.826 368.893 452.000 369.167 C 443.823 369.454 441.595 369.934 436.000 372.616 C 432.425 374.330 427.475 377.360 425.000 379.350 L 420.500 382.969 419.868 380.234 C 419.521 378.730 419.183 375.588 419.118 373.250 C 418.978 368.217 418.210 368.075 410.000 371.555 "/></g>
<g fill="#000000FF" stroke="#000000FF">
<path d="M 109.000 372.955 C 109.000 374.394 109.916 375.081 112.470 375.560 C 116.345 376.287 119.709 379.603 130.009 392.846 C 133.579 397.436 138.166 403.252 140.202 405.770 C 142.323 408.393 143.605 410.866 143.202 411.561 C 142.492 412.789 129.972 426.704 120.155 437.178 C 117.015 440.528 112.993 443.627 110.408 444.690 C 107.577 445.855 106.006 447.124 106.004 448.250 C 106.000 449.836 107.356 450.000 120.500 450.000 C 133.866 450.000 135.000 449.857 135.000 448.176 C 135.000 446.911 133.876 446.069 131.326 445.426 C 129.305 444.917 127.501 444.037 127.316 443.471 C 126.905 442.209 147.915 416.794 149.031 417.205 C 149.817 417.495 162.851 434.767 166.513 440.371 C 168.348 443.180 168.348 443.272 166.503 444.621 C 165.466 445.380 163.579 446.000 162.309 446.000 C 160.667 446.000 160.000 446.577 160.000 448.000 C 160.000 449.932 160.667 450.000 179.500 450.000 C 197.775 450.000 199.000 449.884 199.000 448.158 C 199.000 446.895 197.817 445.962 195.231 445.187 C 193.159 444.567 189.859 442.358 187.899 440.279 C 181.947 433.966 161.858 407.924 162.190 406.950 C 162.360 406.448 168.710 399.516 176.300 391.544 C 187.184 380.113 190.935 376.800 194.050 375.867 C 196.792 375.045 198.000 374.120 198.000 372.842 C 198.000 371.137 196.918 371.000 183.500 371.000 C 169.951 371.000 169.000 371.124 169.000 372.889 C 169.000 374.255 169.967 374.959 172.500 375.434 C 174.957 375.895 176.000 376.626 176.000 377.887 C 176.000 379.515 158.975 400.099 157.054 400.793 C 155.770 401.256 139.888 379.820 140.221 378.073 C 140.388 377.199 142.183 376.088 144.261 375.574 C 146.874 374.926 148.000 374.098 148.000 372.824 C 148.000 371.121 146.705 371.000 128.500 371.000 C 109.817 371.000 109.000 371.082 109.000 372.955 "/></g>
<g fill="#000000FF" stroke="#000000FF">
<path d="M 229.000 370.595 C 212.173 375.072 205.670 387.342 214.017 398.865 C 216.991 402.970 228.586 409.494 243.263 415.318 C 259.456 421.744 263.000 424.800 263.000 432.333 C 263.000 440.263 252.245 447.000 239.588 447.000 C 227.784 447.000 219.895 442.572 215.426 433.438 C 212.934 428.345 212.471 427.916 210.100 428.511 C 208.672 428.869 207.445 429.238 207.374 429.331 C 207.302 429.424 208.229 433.517 209.435 438.426 L 211.627 447.352 217.063 449.351 C 221.697 451.054 225.086 451.358 240.000 451.411 C 256.962 451.471 257.700 451.387 264.000 448.700 C 274.700 444.137 280.001 437.933 280.323 429.596 C 280.811 416.985 271.241 409.782 237.797 397.585 C 231.788 395.394 227.000 390.103 227.000 385.652 C 227.000 382.066 230.558 377.857 235.000 376.188 C 239.279 374.580 247.779 373.782 252.989 374.499 C 259.864 375.444 264.014 378.479 267.000 384.746 C 268.632 388.171 270.119 389.994 271.281 389.996 C 273.950 390.002 274.236 388.043 272.755 379.898 L 271.410 372.500 264.955 370.818 C 256.662 368.658 236.747 368.534 229.000 370.595 "/></g>
<g fill="#000000FF" stroke="#000000FF">
<path d="M 389.020 13.752 C 379.268 18.651 378.100 33.663 386.978 39.984 C 393.860 44.885 403.346 43.347 408.582 36.481 C 412.230 31.699 412.600 23.632 409.372 19.275 C 404.213 12.311 396.210 10.139 389.020 13.752 "/></g>
<g fill="#000000FF" stroke="#000000FF">
<path d="M 255.332 285.859 C 249.189 286.212 243.882 286.782 243.537 287.128 C 242.143 288.526 264.735 289.196 313.073 289.190 C 366.765 289.185 385.457 288.508 380.995 286.732 C 378.122 285.589 272.798 284.857 255.332 285.859 "/></g>
</svg>