<svg version="1.0" xmlns="http://www.w3.org/2000/svg" width="602pt" height="153pt" viewBox="0 0 602 153" style="" preserveAspectRatio="xMidYMid meet">
<g fill="#000000FF" stroke="#000000FF">
<path d="M 56.645 12.584 C 41.093 16.349 24.037 30.223 16.745 45.040 C 11.293 56.118 11.228 57.358 15.702 64.921 C 17.791 68.453 22.875 74.906 27.000 79.261 L 34.500 87.180 39.613 79.840 C 44.729 72.497 61.701 52.905 61.273 54.836 C 61.148 55.400 59.272 58.605 57.104 61.960 C 49.743 73.349 44.831 88.205 46.382 94.384 C 47.154 97.461 53.111 101.000 57.520 101.000 C 66.556 101.000 81.163 92.310 96.460 77.833 C 105.440 69.335 119.035 53.346 118.973 51.356 C 118.959 50.885 115.696 47.717 111.723 44.315 C 101.015 35.147 100.635 34.542 109.636 40.993 C 114.111 44.199 118.075 47.313 118.445 47.912 C 119.637 49.840 120.919 49.089 123.550 44.920 C 126.048 40.963 126.074 40.761 124.392 38.195 C 115.571 24.732 95.096 12.132 81.273 11.660 L 76.598 11.500 68.016 21.741 C 63.296 27.373 57.931 34.461 56.094 37.492 C 52.371 43.635 50.690 52.000 53.179 52.000 C 55.487 52.000 65.320 45.692 73.209 39.149 C 85.035 29.344 84.862 29.840 71.856 43.043 C 58.568 56.532 44.173 67.991 37.122 70.692 C 32.913 72.305 32.689 72.295 31.327 70.435 C 29.551 68.008 30.139 65.401 34.471 56.481 C 39.336 46.467 48.788 34.164 61.157 21.750 L 71.867 11.000 67.183 11.083 C 64.608 11.129 59.865 11.804 56.645 12.584 "/></g>
<g fill="#000000FF" stroke="#000000FF">
<path d="M 147.000 4.000 C 149.853 6.853 149.531 11.863 145.942 20.485 C 141.942 30.093 131.036 46.587 128.910 46.243 C 127.839 46.070 126.947 47.233 126.175 49.812 C 124.092 56.764 95.351 88.411 74.655 106.542 L 66.810 113.415 61.155 110.457 C 49.292 104.254 40.138 97.410 29.961 87.138 C 18.642 75.712 12.977 66.710 9.469 54.575 C 5.926 42.318 9.702 27.993 17.953 22.386 C 19.884 21.074 20.977 20.000 20.382 20.000 C 18.350 20.000 11.012 26.000 8.059 30.077 C 2.120 38.276 1.910 49.436 7.436 63.247 C 8.953 67.041 10.007 71.666 10.017 74.578 C 10.045 82.352 12.529 92.115 16.474 99.948 C 19.563 106.083 19.913 107.415 18.804 108.832 C 17.652 110.306 17.693 110.349 19.161 109.201 C 20.317 108.297 21.025 108.231 21.490 108.984 C 21.858 109.579 23.932 106.400 26.098 101.919 L 30.038 93.773 33.269 96.386 C 38.976 101.003 56.395 112.527 59.750 113.906 C 61.538 114.641 63.000 115.564 63.000 115.956 C 63.000 117.057 46.427 129.177 37.562 134.559 C 27.271 140.807 19.522 143.947 14.321 143.976 C 5.101 144.029 4.489 137.530 12.218 121.645 L 17.500 110.791 12.806 118.145 C 6.042 128.744 2.668 136.660 2.198 143.040 C 1.670 150.213 2.964 151.416 10.531 150.789 C 19.117 150.077 33.736 142.226 51.560 128.755 C 65.215 118.435 66.870 117.457 69.310 118.270 C 70.789 118.763 72.000 119.537 72.000 119.990 C 72.000 120.443 68.144 123.432 63.432 126.633 C 55.055 132.324 54.926 132.471 57.682 133.243 C 63.402 134.847 75.726 135.253 82.569 134.064 C 86.381 133.402 92.641 131.541 96.481 129.930 C 100.694 128.162 105.254 126.997 107.981 126.992 C 120.395 126.972 131.218 123.508 137.992 117.388 C 142.035 113.736 146.045 107.392 145.956 104.790 C 145.931 104.080 145.055 105.120 144.009 107.100 C 140.407 113.915 131.683 119.932 122.336 122.048 C 115.409 123.616 99.378 123.356 91.362 121.546 C 87.588 120.693 81.275 118.840 77.332 117.427 L 70.165 114.857 92.332 92.468 C 104.525 80.153 115.445 69.048 116.601 67.789 C 120.462 63.581 111.776 77.330 105.096 86.000 C 101.494 90.675 94.602 98.591 89.779 103.592 L 81.011 112.684 86.256 113.834 C 100.972 117.062 117.430 116.054 121.131 111.698 C 127.207 104.547 132.571 91.681 133.929 81.000 C 134.876 73.558 134.162 71.131 128.591 62.859 C 126.616 59.926 125.000 57.183 125.000 56.763 C 125.000 54.718 127.907 56.436 130.786 60.182 C 134.506 65.022 134.521 64.986 132.383 56.476 L 130.767 50.040 137.421 40.046 C 149.061 22.560 153.994 9.594 151.078 4.146 C 150.380 2.842 148.962 2.000 147.465 2.000 L 145.000 2.000 147.000 4.000 "/></g>
<g fill="#000000FF" stroke="#000000FF">
<path d="M 585.500 35.090 C 582.750 36.092 579.038 36.932 577.250 36.956 C 575.047 36.986 574.000 37.483 574.000 38.500 C 574.000 39.325 574.800 40.000 575.777 40.000 C 576.755 40.000 578.555 40.701 579.777 41.557 C 581.853 43.010 582.000 43.867 582.000 54.509 L 582.000 65.904 576.898 63.257 C 570.904 60.147 561.622 59.626 553.555 61.947 C 542.475 65.134 535.093 77.078 536.261 89.928 C 537.843 107.339 547.038 116.286 563.348 116.286 C 569.294 116.286 575.221 114.619 579.199 111.830 L 581.898 109.937 582.532 113.319 C 583.164 116.690 583.181 116.698 587.333 115.894 C 589.625 115.450 593.638 115.068 596.250 115.044 C 599.786 115.011 601.000 114.617 601.000 113.500 C 601.000 112.524 600.022 112.000 598.200 112.000 C 596.660 112.000 594.860 111.460 594.200 110.800 C 593.308 109.908 593.000 99.756 593.000 71.300 C 593.000 41.255 592.731 33.029 591.750 33.134 C 591.063 33.207 588.250 34.088 585.500 35.090 M 574.215 65.976 C 574.609 65.989 576.521 67.397 578.465 69.104 L 582.000 72.207 582.000 88.429 C 582.000 103.976 581.906 104.737 579.750 106.709 C 573.339 112.570 563.174 113.841 556.884 109.567 C 550.055 104.926 546.512 91.483 548.983 79.580 C 551.218 68.815 559.850 62.895 570.000 65.168 C 571.925 65.600 573.822 65.963 574.215 65.976 "/></g>
<g fill="#000000FF" stroke="#000000FF">
<path d="M 197.000 38.000 C 197.000 39.664 197.667 40.000 200.965 40.000 C 203.861 40.000 205.209 40.521 205.965 41.934 C 206.617 43.152 207.000 55.743 207.000 75.934 C 207.000 106.667 206.917 108.083 205.000 110.000 C 203.889 111.111 201.667 112.000 200.000 112.000 C 197.987 112.000 197.000 112.498 197.000 113.514 C 197.000 114.840 200.826 114.996 227.652 114.764 L 258.303 114.500 260.110 107.000 C 262.399 97.496 262.431 98.000 259.540 98.000 C 257.557 98.000 256.859 98.739 255.939 101.808 C 255.312 103.902 253.971 106.715 252.959 108.058 C 251.177 110.422 250.654 110.510 236.502 110.825 C 226.196 111.054 221.460 110.796 220.442 109.952 C 219.293 108.999 219.000 105.425 219.000 92.378 L 219.000 76.000 228.566 76.000 C 233.827 76.000 238.949 76.437 239.948 76.972 C 241.090 77.583 242.017 79.625 242.444 82.472 C 242.980 86.052 243.528 87.000 245.061 87.000 C 246.880 87.000 247.000 86.196 247.000 74.000 C 247.000 61.804 246.880 61.000 245.061 61.000 C 243.528 61.000 242.980 61.948 242.444 65.528 C 242.017 68.375 241.090 70.417 239.948 71.028 C 238.949 71.563 233.827 72.000 228.566 72.000 L 219.000 72.000 219.000 56.975 L 219.000 41.950 221.750 40.880 C 223.382 40.246 229.134 39.979 235.895 40.225 C 248.692 40.691 249.812 41.302 252.147 49.097 C 253.074 52.190 253.802 53.000 255.658 53.000 C 258.467 53.000 258.499 52.525 256.330 43.250 L 254.634 36.000 225.817 36.000 C 197.667 36.000 197.000 36.046 197.000 38.000 "/></g>
<g fill="#000000FF" stroke="#000000FF">
<path d="M 414.056 61.538 C 402.050 64.891 395.000 74.661 395.000 87.944 C 395.000 99.384 399.948 108.892 408.053 113.027 C 416.156 117.161 431.424 117.418 438.911 113.546 C 443.194 111.331 449.000 106.066 449.000 104.396 C 449.000 102.173 445.963 102.777 443.890 105.413 C 440.833 109.299 433.455 112.334 427.090 112.325 C 415.674 112.308 408.372 105.190 407.266 93.000 L 406.722 87.000 428.489 87.000 L 450.256 87.000 449.581 82.750 C 448.024 72.946 442.295 64.963 434.757 62.098 C 429.750 60.194 419.826 59.926 414.056 61.538 M 430.701 65.960 C 434.669 68.379 436.930 72.613 437.693 79.054 L 438.279 84.000 422.639 84.000 L 407.000 84.000 407.000 81.196 C 407.000 76.368 411.784 68.165 415.854 66.015 C 420.591 63.512 426.651 63.490 430.701 65.960 "/></g>
<g fill="#000000FF" stroke="#000000FF">
<path d="M 472.506 62.079 C 470.310 63.069 466.372 64.174 463.756 64.534 C 458.472 65.260 456.900 67.988 461.750 68.015 C 467.397 68.047 467.474 68.309 467.810 88.915 C 468.162 110.452 467.803 112.000 462.465 112.000 C 460.052 112.000 459.000 112.455 459.000 113.500 C 459.000 114.759 461.167 115.000 472.500 115.000 C 483.833 115.000 486.000 114.759 486.000 113.500 C 486.000 112.572 485.059 112.000 483.535 112.000 C 482.122 112.000 480.629 111.175 480.035 110.066 C 479.442 108.957 479.000 101.105 479.000 91.669 L 479.000 75.207 482.528 72.110 C 488.584 66.792 493.690 64.716 499.367 65.261 C 503.214 65.631 504.920 66.369 506.691 68.427 C 508.935 71.036 509.000 71.669 509.000 90.949 C 509.000 112.169 509.041 112.000 503.918 112.000 C 502.863 112.000 502.000 112.675 502.000 113.500 C 502.000 114.756 504.111 115.000 515.000 115.000 C 525.889 115.000 528.000 114.756 528.000 113.500 C 528.000 112.601 527.078 112.000 525.700 112.000 C 521.308 112.000 521.000 110.656 521.000 91.512 C 521.000 74.743 520.836 73.098 518.750 68.962 C 515.694 62.901 510.858 60.561 501.500 60.613 C 493.678 60.656 488.925 62.307 482.912 67.070 L 479.000 70.168 479.000 66.206 C 479.000 60.823 477.462 59.845 472.506 62.079 "/></g>
<g fill="#000000FF" stroke="#000000FF">
<path d="M 269.000 63.500 C 269.000 64.421 269.936 65.000 271.423 65.000 C 273.939 65.000 277.564 68.750 287.820 81.960 L 292.835 88.421 289.991 91.960 C 282.989 100.673 271.212 112.000 269.154 112.000 C 267.906 112.000 267.000 112.631 267.000 113.500 C 267.000 114.733 268.778 115.000 277.000 115.000 C 285.222 115.000 287.000 114.733 287.000 113.500 C 287.000 112.567 286.056 112.000 284.500 112.000 C 283.015 112.000 282.000 111.427 282.000 110.590 C 282.000 109.037 294.752 93.000 295.987 93.000 C 297.182 93.000 308.257 108.096 308.386 109.899 C 308.453 110.843 307.577 111.630 306.250 111.819 C 305.013 111.995 304.000 112.783 304.000 113.570 C 304.000 114.737 306.392 115.000 317.000 115.000 C 327.889 115.000 330.000 114.756 330.000 113.500 C 330.000 112.675 329.166 112.000 328.146 112.000 C 327.126 112.000 325.208 110.988 323.883 109.750 C 320.590 106.674 304.999 87.317 305.004 86.311 C 305.006 85.865 309.478 80.888 314.942 75.250 C 321.217 68.775 325.635 65.000 326.938 65.000 C 328.104 65.000 329.000 64.348 329.000 63.500 C 329.000 62.272 327.278 62.000 319.500 62.000 C 311.722 62.000 310.000 62.272 310.000 63.500 C 310.000 64.325 310.873 65.000 311.941 65.000 C 313.009 65.000 314.145 65.425 314.466 65.945 C 314.987 66.787 304.435 79.995 302.078 81.452 C 300.923 82.166 289.789 68.138 290.294 66.604 C 290.493 65.997 291.634 65.356 292.828 65.180 C 294.023 65.005 295.000 64.217 295.000 63.430 C 295.000 62.263 292.608 62.000 282.000 62.000 C 271.111 62.000 269.000 62.244 269.000 63.500 "/></g>
<g fill="#000000FF" stroke="#000000FF">
<path d="M 352.903 60.959 C 343.335 62.689 338.000 67.462 338.000 74.290 C 338.000 80.272 342.868 84.387 357.054 90.396 C 370.077 95.912 373.000 98.083 373.000 102.240 C 373.000 106.581 371.289 108.966 366.669 111.063 C 358.138 114.936 345.768 112.356 342.225 105.963 C 339.299 100.684 338.593 99.978 337.149 100.890 C 336.027 101.598 336.015 102.709 337.079 107.464 C 338.578 114.161 339.427 114.678 351.126 116.013 C 370.947 118.277 386.129 110.800 384.648 99.506 C 383.813 93.133 377.826 88.251 364.486 83.066 C 351.765 78.122 348.772 75.882 349.203 71.630 C 349.635 67.362 353.758 64.717 360.769 64.210 C 368.692 63.637 373.437 65.696 375.710 70.695 C 376.662 72.788 377.502 74.623 377.577 74.774 C 377.652 74.924 378.386 74.789 379.208 74.474 C 380.478 73.986 380.532 73.055 379.573 68.265 C 378.585 63.333 378.092 62.535 375.623 61.875 C 370.888 60.608 357.769 60.080 352.903 60.959 "/></g>
<g fill="#000000FF" stroke="#000000FF">
<path d="M 111.000 9.000 C 109.762 10.238 109.000 12.333 109.000 14.500 C 109.000 19.021 111.910 22.000 116.326 22.000 C 123.102 22.000 126.552 13.746 121.686 9.174 C 118.740 6.407 113.676 6.324 111.000 9.000 "/></g>
</svg>
