<?xml version="1.0" encoding="utf-8"?>
<!DOCTYPE svg PUBLIC "-//W3C//DTD SVG 20010904//EN" "http://www.w3.org/TR/2001/REC-SVG-20010904/DTD/svg10.dtd">
<svg version="1.0" xmlns="http://www.w3.org/2000/svg" width="559pt" height="559pt" viewBox="0 0 559 559" style="" preserveAspectRatio="xMidYMid meet">
<g fill="#FFFFFFFF" stroke="#FFFFFFFF">
<path d="M 237.498 36.550 C 151.746 46.956 79.871 105.521 52.572 187.231 C 50.057 194.757 48.000 201.804 48.000 202.890 C 48.000 206.246 60.426 229.877 68.829 242.500 C 82.607 263.198 102.636 286.445 120.794 302.814 L 128.884 310.107 136.131 299.303 C 150.641 277.674 172.050 250.257 192.955 226.535 C 205.333 212.489 228.946 188.192 227.500 190.988 C 226.950 192.052 223.064 198.002 218.864 204.211 C 184.516 254.990 166.668 301.318 170.011 331.020 C 171.275 342.254 171.753 342.989 182.165 349.711 C 202.862 363.074 204.095 363.434 218.792 360.418 C 231.288 357.853 241.571 354.058 257.318 346.197 C 312.033 318.883 378.404 257.894 425.314 191.822 L 432.895 181.145 420.166 168.822 C 399.205 148.530 373.933 129.057 347.406 112.757 C 340.015 108.216 335.086 104.879 336.452 105.343 C 340.472 106.706 371.473 125.526 384.728 134.649 C 399.230 144.630 412.894 155.175 426.186 166.643 C 431.514 171.239 436.099 175.000 436.376 175.000 C 436.964 175.000 445.922 160.630 451.719 150.385 L 455.746 143.270 450.123 134.869 C 441.533 122.036 435.455 114.501 424.609 103.239 C 390.378 67.700 344.338 44.121 295.898 37.323 L 283.912 35.641 276.877 42.570 C 273.008 46.382 264.763 55.125 258.555 62.000 C 212.603 112.888 183.365 163.578 190.339 180.268 C 191.801 183.767 192.170 184.000 196.252 184.000 C 208.112 184.000 243.789 159.735 284.000 124.320 C 309.366 101.980 309.187 102.092 297.261 116.000 C 283.836 131.655 247.999 167.615 229.443 184.050 C 176.972 230.523 134.905 257.424 121.579 253.026 C 116.866 251.471 115.000 247.491 115.000 238.993 C 115.000 213.297 149.580 156.993 199.751 101.000 C 215.185 83.776 242.249 57.054 257.269 44.209 L 268.038 35.000 258.269 35.107 C 252.896 35.166 243.549 35.815 237.498 36.550 "/></g>
<g fill="#FFFFFFFF" stroke="#FFFFFFFF">
<path d="M 512.000 3.170 C 506.061 4.432 489.935 9.542 492.500 9.350 C 493.600 9.267 498.027 8.480 502.338 7.600 C 512.080 5.611 516.258 5.590 522.681 7.498 C 532.163 10.314 536.630 16.233 537.669 27.359 C 539.901 51.262 515.216 102.367 474.165 158.828 L 468.111 167.155 465.162 161.328 L 462.214 155.500 461.007 160.000 C 460.342 162.475 457.716 170.294 455.171 177.375 C 450.066 191.574 448.495 193.824 421.214 226.000 C 377.145 277.975 305.819 349.581 254.000 393.871 C 248.775 398.336 244.088 401.992 243.585 401.995 C 243.081 401.998 235.394 398.222 226.502 393.605 C 198.780 379.211 173.495 362.935 150.557 344.719 C 136.484 333.543 124.095 322.709 124.323 321.778 C 124.420 321.381 128.100 316.554 132.500 311.051 L 140.500 301.046 132.077 310.773 C 127.444 316.123 123.494 320.700 123.298 320.945 C 123.103 321.190 119.779 318.265 115.911 314.445 C 81.851 280.805 54.580 240.000 43.101 205.500 C 36.718 186.318 34.715 174.928 34.657 157.500 C 34.513 113.621 51.193 85.561 88.500 66.920 C 100.618 60.865 100.318 60.220 87.500 64.769 C 52.229 77.284 27.932 102.305 19.788 134.500 C 16.474 147.598 16.492 173.920 19.823 188.844 C 22.979 202.978 27.999 217.151 35.063 231.867 L 41.000 244.235 41.000 257.874 C 41.000 291.917 48.274 323.981 62.925 354.527 C 66.626 362.242 71.344 371.198 73.412 374.429 L 77.170 380.305 73.898 384.902 C 56.431 409.442 39.379 437.144 28.904 458.000 C 16.328 483.037 11.019 500.030 11.007 515.282 C 10.997 528.029 13.828 533.706 22.500 538.326 C 28.078 541.298 42.187 541.194 53.921 538.095 C 96.057 526.964 161.112 485.654 240.811 419.419 L 243.315 417.337 253.188 421.532 C 258.618 423.840 263.283 425.950 263.555 426.221 C 264.815 427.482 225.450 455.797 207.156 466.790 L 198.812 471.803 204.156 473.324 C 223.099 478.716 241.805 481.128 264.500 481.104 C 299.703 481.068 331.141 473.802 362.651 458.420 L 375.803 452.000 394.178 452.000 C 404.284 452.000 416.366 451.528 421.026 450.951 C 469.689 444.927 503.772 424.459 520.377 391.288 C 524.657 382.738 528.563 369.828 529.392 361.490 L 529.988 355.500 527.628 362.500 C 522.072 378.982 514.311 391.532 502.845 402.572 C 456.550 447.148 365.592 450.804 266.750 412.062 C 260.838 409.744 256.000 407.516 256.000 407.109 C 256.000 406.702 263.650 399.519 273.001 391.145 C 321.591 347.632 373.628 294.872 413.825 248.365 C 422.446 238.391 429.671 230.387 429.880 230.579 C 430.543 231.186 418.123 251.905 407.247 268.339 C 381.465 307.293 351.758 343.274 314.954 380.120 L 294.358 400.739 299.429 401.945 C 327.540 408.631 339.095 410.526 361.229 412.081 C 378.559 413.298 397.863 412.176 414.258 408.998 C 432.456 405.470 432.602 405.386 441.741 393.222 C 465.342 361.808 480.627 324.588 485.486 286.699 C 488.072 266.541 487.723 262.325 482.589 251.661 C 476.956 239.962 467.250 223.995 458.639 212.263 L 451.890 203.068 454.133 200.034 C 455.367 198.365 456.693 197.000 457.080 197.000 C 458.196 197.000 468.654 208.600 477.186 219.301 C 483.152 226.784 484.998 228.558 484.992 226.801 C 484.976 222.053 480.054 201.059 476.153 189.100 L 472.109 176.699 480.879 164.600 C 530.693 95.871 555.231 41.586 547.770 16.616 C 546.044 10.838 539.577 4.635 533.751 3.168 C 528.343 1.806 518.416 1.807 512.000 3.170 M 127.418 345.250 C 142.329 357.695 161.061 371.333 178.923 382.749 C 193.254 391.908 227.642 410.988 229.833 410.995 C 233.795 411.009 225.915 417.852 196.500 439.940 C 147.251 476.923 104.673 501.529 74.134 510.657 C 62.857 514.027 47.399 514.491 42.000 511.620 C 34.472 507.617 31.223 502.337 30.362 492.708 C 28.559 472.553 46.457 430.850 75.278 388.054 L 78.791 382.836 82.006 387.508 C 83.774 390.078 85.576 391.802 86.011 391.340 C 86.447 390.878 88.460 386.450 90.486 381.500 C 95.323 369.679 113.012 335.000 114.205 335.000 C 114.717 335.000 120.663 339.613 127.418 345.250 "/></g>
<g fill="#FFFFFFFF" stroke="#FFFFFFFF">
<path d="M 411.385 22.557 C 405.961 24.560 399.618 30.089 396.354 35.659 C 392.883 41.582 392.039 51.590 394.409 58.726 C 399.578 74.289 419.029 82.273 433.500 74.771 C 448.110 67.196 453.388 51.356 446.181 36.716 C 443.002 30.259 439.712 26.957 433.000 23.487 C 428.287 21.050 416.802 20.556 411.385 22.557 "/></g>
<g fill="#FFFFFFFF" stroke="#FFFFFFFF">
<path d="M 205.500 516.601 C 182.735 517.120 144.774 519.042 141.000 519.867 L 137.500 520.633 141.000 521.299 C 142.925 521.666 153.050 522.519 163.500 523.195 C 190.080 524.915 348.143 524.892 376.314 523.165 C 398.645 521.795 404.881 520.717 397.000 519.587 C 381.806 517.409 256.107 515.449 205.500 516.601 "/></g>
</svg>
