<?xml version="1.0" encoding="utf-8"?>
<!DOCTYPE svg PUBLIC "-//W3C//DTD SVG 20010904//EN" "http://www.w3.org/TR/2001/REC-SVG-20010904/DTD/svg10.dtd">
<svg version="1.0" xmlns="http://www.w3.org/2000/svg" width="602pt" height="602pt" viewBox="0 0 602 602" style="" preserveAspectRatio="xMidYMid meet">
<g fill="#0866FFFF" stroke="#0866FFFF">
<path d="M 265.000 3.585 C 173.844 15.560 96.425 64.565 47.914 140.997 C 23.960 178.738 9.405 219.707 3.563 265.842 C 1.463 282.425 1.463 319.575 3.563 336.158 C 14.720 424.265 59.901 498.513 133.301 549.366 C 156.398 565.368 190.610 581.223 219.750 589.431 L 228.000 591.755 228.000 492.377 L 228.000 393.000 197.500 393.000 L 167.000 393.000 167.000 347.000 L 167.000 301.000 197.363 301.000 L 227.726 301.000 228.290 268.250 C 228.983 228.049 230.831 214.086 238.521 190.951 C 256.656 136.393 306.092 109.505 383.000 112.369 C 405.419 113.203 436.017 117.038 440.025 119.516 C 440.633 119.891 441.000 135.702 441.000 161.479 L 441.000 202.840 420.250 202.279 C 381.217 201.225 362.133 206.139 350.749 220.175 C 340.700 232.565 338.000 245.143 338.000 279.572 L 338.000 301.000 386.856 301.000 L 435.712 301.000 434.310 308.750 C 433.539 313.013 432.058 321.225 431.019 327.000 C 427.500 346.548 419.988 387.483 419.413 390.250 L 418.841 393.000 378.421 393.000 L 338.000 393.000 338.000 495.615 L 338.000 598.230 343.750 597.551 C 364.538 595.096 394.537 586.904 415.867 577.859 C 454.485 561.482 482.824 542.360 512.592 512.592 C 542.328 482.856 561.572 454.346 577.792 416.000 C 609.232 341.673 608.011 252.578 574.545 178.921 C 558.491 143.589 540.265 117.212 513.041 89.918 C 496.835 73.669 490.406 68.203 472.962 55.837 C 432.953 27.476 387.333 10.043 336.158 3.563 C 320.584 1.591 280.086 1.603 265.000 3.585 "/></g>
<g fill="#FFFFFFFF" stroke="#FFFFFFFF">
<path d="M 358.000 113.003 C 290.138 117.505 251.257 145.572 236.095 201.000 C 230.877 220.077 229.783 230.599 229.256 266.750 L 228.757 301.000 197.879 301.000 L 167.000 301.000 167.000 346.486 L 167.000 391.971 197.750 392.236 L 228.500 392.500 228.755 492.184 C 228.995 586.042 229.112 591.896 230.755 592.348 C 231.715 592.613 235.875 593.530 240.000 594.387 C 269.271 600.467 295.315 601.922 329.245 599.374 L 336.991 598.793 337.245 495.646 L 337.500 392.500 378.000 392.000 L 418.500 391.500 421.195 377.000 C 422.677 369.025 424.569 358.675 425.399 354.000 C 426.229 349.325 428.728 335.646 430.954 323.603 C 433.179 311.559 435.000 301.547 435.000 301.353 C 435.000 301.159 412.889 301.000 385.865 301.000 L 336.730 301.000 337.269 275.250 C 337.732 253.097 338.110 248.382 339.970 241.500 C 345.805 219.913 357.325 208.839 379.205 203.784 C 387.496 201.868 391.282 201.645 414.261 201.717 L 440.022 201.797 439.761 160.689 L 439.500 119.582 433.500 118.350 C 423.740 116.346 394.424 113.148 381.500 112.677 C 374.900 112.437 364.325 112.583 358.000 113.003 "/></g>
<g fill="#C5DBFFF9" stroke="#C5DBFFF9">
<path d="M 378.000 392.017 L 337.500 392.534 377.750 392.767 C 399.888 392.895 418.113 392.663 418.250 392.250 C 418.388 391.838 400.275 391.733 378.000 392.017 "/></g>
</svg>
