<?xml version="1.0" encoding="utf-8"?>
<!DOCTYPE svg PUBLIC "-//W3C//DTD SVG 20010904//EN" "http://www.w3.org/TR/2001/REC-SVG-20010904/DTD/svg10.dtd">
<svg version="1.0" xmlns="http://www.w3.org/2000/svg" width="542pt" height="542pt" viewBox="0 0 542 542" style="" preserveAspectRatio="xMidYMid meet">
<g fill="#2867B2FF" stroke="#2867B2FF">
<path d="M 27.813 3.923 C 17.126 8.109 8.723 16.097 4.804 25.798 L 2.500 31.500 2.500 269.000 L 2.500 506.500 4.821 512.247 C 8.060 520.269 15.569 528.170 23.807 532.226 L 30.458 535.500 269.500 535.500 L 508.542 535.500 515.193 532.226 C 523.431 528.170 530.940 520.269 534.179 512.247 L 536.500 506.500 536.500 269.000 L 536.500 31.500 534.179 25.753 C 530.940 17.731 523.431 9.830 515.193 5.774 L 508.542 2.500 270.521 2.294 C 41.692 2.095 32.319 2.158 27.813 3.923 M 387.636 197.570 C 424.443 203.906 445.700 225.949 453.955 266.342 C 457.590 284.130 458.000 295.422 458.000 377.685 L 458.000 458.023 418.250 457.761 L 378.500 457.500 377.946 380.000 C 377.458 311.748 377.192 301.757 375.714 296.277 C 373.129 286.690 370.050 280.975 364.424 275.320 C 360.151 271.025 358.035 269.765 352.045 267.945 C 345.922 266.085 343.194 265.824 334.160 266.234 C 307.658 267.436 294.836 280.916 291.104 311.500 C 290.404 317.233 290.005 345.464 290.003 389.261 L 290.000 458.023 250.250 457.761 L 210.500 457.500 210.246 329.750 L 209.992 202.000 248.496 202.000 L 287.000 202.000 287.000 219.657 L 287.000 237.314 291.918 230.310 C 304.343 212.618 326.789 199.056 348.561 196.086 C 357.034 194.930 376.621 195.674 387.636 197.570 M 160.754 329.750 L 160.500 457.500 120.750 457.761 L 81.000 458.023 81.000 330.011 L 81.000 202.000 121.004 202.000 L 161.008 202.000 160.754 329.750 M 134.295 77.009 C 158.275 84.416 172.301 110.188 165.156 133.713 C 160.994 147.414 152.693 156.938 139.443 163.212 C 132.846 166.336 131.927 166.500 121.000 166.500 C 109.793 166.500 109.302 166.405 101.720 162.785 C 91.375 157.845 84.155 150.625 79.215 140.280 C 75.595 132.698 75.500 132.207 75.500 121.000 C 75.500 110.073 75.664 109.154 78.788 102.557 C 83.112 93.424 88.018 87.591 95.369 82.840 C 107.296 75.131 121.382 73.021 134.295 77.009 "/></g>
</svg>
